<svg width="56" height="33" viewBox="0 0 56 33" fill="none" xmlns="http://www.w3.org/2000/svg">
<path d="M12.6023 25H11.6023V26H12.6023V25ZM16 25V26H17V25H16ZM4.85227 10.3864V11.3864H5.50855L5.76969 10.7843L4.85227 10.3864ZM4.63636 10.3864H3.63636V11.3864H4.63636V10.3864ZM4.63636 1.72727H5.63636V0.727272H4.63636V1.72727ZM1.28409 1.72727V0.727272H0.284091V1.72727H1.28409ZM1.28409 25H0.284091V26H1.28409V25ZM4.68182 25V26H5.68182V25H4.68182ZM5.68182 14.6364C5.68182 13.4599 6.04925 12.6369 6.57351 12.1106C7.09974 11.5823 7.87512 11.2614 8.86364 11.2614V9.26136C7.43169 9.26136 6.11617 9.73583 5.1566 10.6991C4.19507 11.6643 3.68182 13.0287 3.68182 14.6364H5.68182ZM8.86364 11.2614C9.81588 11.2614 10.4623 11.5578 10.8778 12.0056C11.3026 12.4632 11.6023 13.2045 11.6023 14.3068H13.6023C13.6023 12.8524 13.2031 11.5709 12.3438 10.645C11.4752 9.70924 10.2523 9.26136 8.86364 9.26136V11.2614ZM11.6023 14.3068V25H13.6023V14.3068H11.6023ZM12.6023 26H16V24H12.6023V26ZM17 25V13.8977H15V25H17ZM17 13.8977C17 11.5436 16.3524 9.62382 15.0831 8.28723C13.8084 6.94501 12.0275 6.31818 10.0227 6.31818V8.31818C11.6088 8.31818 12.8166 8.80499 13.6328 9.66448C14.4544 10.5296 15 11.8996 15 13.8977H17ZM10.0227 6.31818C8.51906 6.31818 7.23783 6.6463 6.19624 7.29665C5.15041 7.94964 4.41305 8.88594 3.93485 9.98845L5.76969 10.7843C6.10968 10.0004 6.59959 9.40263 7.25547 8.99312C7.91558 8.58097 8.81049 8.31818 10.0227 8.31818V6.31818ZM4.85227 9.38636H4.63636V11.3864H4.85227V9.38636ZM5.63636 10.3864V1.72727H3.63636V10.3864H5.63636ZM4.63636 0.727272H1.28409V2.72727H4.63636V0.727272ZM0.284091 1.72727V25H2.28409V1.72727H0.284091ZM1.28409 26H4.68182V24H1.28409V26ZM5.68182 25V14.6364H3.68182V25H5.68182ZM35.3295 20.6364L36.2945 20.8988L36.5809 19.8458L35.5069 19.6522L35.3295 20.6364ZM32.1136 20.0568L32.291 19.0727L31.4683 18.9244L31.1765 19.7078L32.1136 20.0568ZM23.1364 17.2955V16.2955H22.109L22.1367 17.3225L23.1364 17.2955ZM35.5455 17.2955V18.2955H36.5455V17.2955H35.5455ZM23.1477 14.75L22.1492 14.695L22.0912 15.75H23.1477V14.75ZM32.2159 14.75V15.75H33.2202L33.2159 14.7457L32.2159 14.75ZM28.0568 26.3523C32.1952 26.3523 35.3746 24.2807 36.2945 20.8988L34.3646 20.3739C33.739 22.6738 31.5321 24.3523 28.0568 24.3523V26.3523ZM35.5069 19.6522L32.291 19.0727L31.9363 21.041L35.1522 21.6205L35.5069 19.6522ZM31.1765 19.7078C30.7426 20.873 29.7115 21.5455 28.0909 21.5455V23.5455C30.3339 23.5455 32.2574 22.5361 33.0508 20.4058L31.1765 19.7078ZM28.0909 21.5455C26.859 21.5455 25.9194 21.1516 25.2753 20.4862C24.6256 19.8152 24.1764 18.7639 24.136 17.2684L22.1367 17.3225C22.1872 19.1906 22.7608 20.7644 23.8384 21.8774C24.9215 22.9961 26.4138 23.5455 28.0909 23.5455V21.5455ZM23.1364 18.2955H35.5455V16.2955H23.1364V18.2955ZM36.5455 17.2955V16.0909H34.5455V17.2955H36.5455ZM36.5455 16.0909C36.5455 12.7331 35.5356 10.2582 33.8637 8.6243C32.2009 6.99929 29.9975 6.31818 27.8182 6.31818V8.31818C29.5935 8.31818 31.2536 8.87003 32.4658 10.0547C33.6689 11.2304 34.5455 13.1419 34.5455 16.0909H36.5455ZM27.8182 6.31818C25.1159 6.31818 22.82 7.35554 21.2105 9.1792C19.611 10.9915 18.75 13.5088 18.75 16.3864H20.75C20.75 13.9003 21.4913 11.8835 22.71 10.5026C23.9187 9.1331 25.6569 8.31818 27.8182 8.31818V6.31818ZM18.75 16.3864C18.75 19.2873 19.5972 21.7897 21.2358 23.5776C22.8836 25.3757 25.2421 26.3523 28.0568 26.3523V24.3523C25.7238 24.3523 23.9289 23.5561 22.7102 22.2264C21.4823 20.8864 20.75 18.9059 20.75 16.3864H18.75ZM24.1462 14.805C24.2585 12.7659 25.6979 11.125 27.8409 11.125V9.125C24.4612 9.125 22.3097 11.7796 22.1492 14.695L24.1462 14.805ZM27.8409 11.125C28.8985 11.125 29.7178 11.5103 30.2796 12.1161C30.8485 12.7295 31.2111 13.6331 31.2159 14.7543L33.2159 14.7457C33.2093 13.1964 32.7027 11.7876 31.746 10.7561C30.7822 9.71695 29.4196 9.125 27.8409 9.125V11.125ZM32.2159 13.75H23.1477V15.75H32.2159V13.75ZM46.5227 27.3295L47.4613 27.6747L47.462 27.6727L46.5227 27.3295ZM53.7386 7.57954L54.6779 7.92272L55.1638 6.59274L53.7479 6.57959L53.7386 7.57954ZM50.0682 7.54545L50.0775 6.5455L49.3448 6.53869L49.1175 7.23521L50.0682 7.54545ZM45.6477 21.0909V22.0909H46.3733L46.5984 21.4011L45.6477 21.0909ZM45.4659 21.0909L44.5153 21.4011L44.7403 22.0909H45.4659V21.0909ZM41.0455 7.54545L41.9961 7.23521L41.771 6.54545H41.0455V7.54545ZM37.4091 7.54545V6.54545H35.9847L36.4686 7.88516L37.4091 7.54545ZM43.7955 25.2273L44.7355 25.5683L44.8589 25.228L44.736 24.8876L43.7955 25.2273ZM43.375 26.3864L44.3121 26.7355L44.3151 26.7274L43.375 26.3864ZM39.4318 28.3864L39.6964 27.422L38.7493 27.1621L38.4724 28.1044L39.4318 28.3864ZM38.6136 31.1705L37.6542 30.8885L37.4073 31.7286L38.2075 32.0843L38.6136 31.1705ZM40.9318 32.5455C42.5191 32.5455 43.8887 32.1268 45.0115 31.2605C46.1231 30.4027 46.9118 29.1689 47.4613 27.6747L45.5842 26.9844C45.1223 28.2402 44.519 29.1143 43.7897 29.677C43.0715 30.2312 42.1513 30.5455 40.9318 30.5455V32.5455ZM47.462 27.6727L54.6779 7.92272L52.7994 7.23637L45.5835 26.9864L47.462 27.6727ZM53.7479 6.57959L50.0775 6.5455L50.0589 8.54541L53.7293 8.5795L53.7479 6.57959ZM49.1175 7.23521L44.6971 20.7807L46.5984 21.4011L51.0188 7.85569L49.1175 7.23521ZM45.6477 20.0909H45.4659V22.0909H45.6477V20.0909ZM46.4166 20.7807L41.9961 7.23521L40.0948 7.85569L44.5153 21.4011L46.4166 20.7807ZM41.0455 6.54545H37.4091V8.54545H41.0455V6.54545ZM36.4686 7.88516L42.8549 25.567L44.736 24.8876L38.3496 7.20575L36.4686 7.88516ZM42.8554 24.8863L42.4349 26.0454L44.3151 26.7274L44.7355 25.5683L42.8554 24.8863ZM42.4379 26.0373C42.048 27.0839 41.6658 27.4087 41.3872 27.5271C41.0717 27.6613 40.5879 27.6666 39.6964 27.422L39.1672 29.3507C40.1394 29.6175 41.1954 29.7819 42.1696 29.3677C43.1808 28.9379 43.8384 28.0071 44.3121 26.7355L42.4379 26.0373ZM38.4724 28.1044L37.6542 30.8885L39.5731 31.4524L40.3912 28.6683L38.4724 28.1044ZM38.2075 32.0843C38.783 32.34 39.8186 32.5455 40.9318 32.5455V30.5455C39.9995 30.5455 39.2624 30.3645 39.0198 30.2566L38.2075 32.0843Z" fill="black"/>
</svg>
