<svg width="81" height="43" viewBox="0 0 81 43" fill="none" xmlns="http://www.w3.org/2000/svg">
<path fill-rule="evenodd" clip-rule="evenodd" d="M0 34V0.90909H11.8977V12.2727H18.3523V0.90909H30.25V15.7709C30.8496 14.1858 31.7344 12.7726 32.8928 11.5886C35.2481 9.18116 38.562 7.89773 42.3977 7.89773C46.1314 7.89773 49.3949 9.11037 51.7247 11.4905C52.1625 11.9378 52.5603 12.4191 52.9177 12.9317L51.3187 8.18182H63.8715L65.9351 17.0353L68.032 8.18182H80.6356L71.7943 34.4529C71.7942 34.4534 71.794 34.4539 71.7939 34.4544C71.1051 36.5118 69.9731 38.4867 68.0913 39.9371C66.1943 41.3991 63.7251 42.1818 60.6364 42.1818C58.6549 42.1818 56.7011 41.874 55.1851 41.2747L53.4674 40.5956L56.3233 31.2663L58.2906 31.9606C58.7643 32.1278 59.1415 32.2255 59.4304 32.2766L55.1972 19.7026C55.2324 20.1569 55.25 20.6199 55.25 21.0909V22.9545H55.6012L55.2241 25.2753C54.7706 28.0664 53.3253 30.4035 51.0586 32.0118C48.8206 33.5998 45.9011 34.3977 42.5682 34.3977C38.6738 34.3977 35.3075 33.2226 32.9115 30.8376C31.7354 29.6668 30.8484 28.2597 30.25 26.6654V34H18.3523V22.6364H11.8977V34H0ZM39.3785 24.9091C39.1597 24.4193 39.0455 23.8584 39.0455 23.25V22.9091H53.25V21.0909C53.25 21.0301 53.2497 20.9695 53.249 20.9091C53.1752 14.0708 48.9309 9.89773 42.3977 9.89773C35.6364 9.89773 31.3182 14.3864 31.3182 21.1477C31.3182 28.2074 35.5795 32.3977 42.5682 32.3977C47.6765 32.3977 51.2461 30.3327 52.6788 26.9545C52.9433 26.331 53.1349 25.6628 53.25 24.9545H46.0909C45.6364 26.1903 44.3438 26.8864 42.7386 26.8864C41.0833 26.8864 39.9157 26.1118 39.3785 24.9091ZM69.8977 33.8182L77.8523 10.1818H69.6136L66.0341 25.2955H65.8068L62.2841 10.1818H54.1023L61.7727 32.9659L61.6023 33.3636C61.1652 34.3678 60.0403 34.5073 58.5627 34.1336C58.2636 34.058 57.9502 33.9614 57.625 33.8466L55.9205 39.4148C56.3123 39.5697 56.7523 39.7041 57.2288 39.8153C57.4297 39.8622 57.6372 39.9049 57.8503 39.9433C58.7072 40.0977 59.655 40.1818 60.6364 40.1818C66.1193 40.1818 68.6903 37.4261 69.8977 33.8182ZM9.89773 2.90909V14.2727H20.3523V2.90909H28.25V32H20.3523V20.6364H9.89773V32H2V2.90909H9.89773ZM39.0455 18.5909H46.0341C46.0163 17.8069 45.7476 17.1222 45.2988 16.5909C44.6741 15.8515 43.7005 15.4091 42.5682 15.4091C41.4494 15.4091 40.4514 15.8491 39.8057 16.5909C39.3447 17.1205 39.0632 17.804 39.0455 18.5909Z" fill="#FFFF93"/>
</svg>
