<svg width="20" height="17" viewBox="0 0 20 17" fill="none" xmlns="http://www.w3.org/2000/svg">
<path fill-rule="evenodd" clip-rule="evenodd" d="M19.894 2.08697C19.333 2.90747 18.655 3.60647 17.86 4.18397C17.8682 4.30097 17.8728 4.47647 17.8728 4.71122C17.8728 5.79947 17.7138 6.88547 17.395 7.96922C17.077 9.05372 16.594 10.0932 15.9453 11.0892C15.2965 12.086 14.524 12.9665 13.6285 13.7322C12.733 14.4987 11.653 15.1092 10.3893 15.566C9.1255 16.022 7.77325 16.25 6.334 16.25C4.06525 16.25 1.98925 15.6432 0.106003 14.4297C0.399253 14.4627 0.725503 14.48 1.0855 14.48C2.96875 14.48 4.64725 13.9017 6.12025 12.7467C5.24125 12.7302 4.4545 12.4602 3.76 11.9367C3.06475 11.414 2.58775 10.7465 2.32825 9.93422C2.605 9.97622 2.86 9.99722 3.094 9.99722C3.454 9.99722 3.81025 9.95147 4.16125 9.85922C3.22375 9.66647 2.4475 9.19997 1.8325 8.45897C1.2175 7.71797 0.909253 6.85847 0.909253 5.87897V5.82872C1.4785 6.14672 2.08975 6.31847 2.743 6.34322C2.19025 5.97497 1.75075 5.49347 1.4245 4.89947C1.09825 4.30547 0.934753 3.66047 0.934753 2.96597C0.934753 2.22947 1.1185 1.54697 1.4875 0.919223C2.5 2.16647 3.73225 3.16472 5.185 3.91397C6.637 4.66322 8.19175 5.07947 9.84925 5.16347C9.7825 4.84547 9.74875 4.53572 9.74875 4.23422C9.74875 3.11222 10.1448 2.15597 10.9353 1.36472C11.7265 0.574222 12.6828 0.178223 13.8048 0.178223C14.9763 0.178223 15.964 0.605722 16.7673 1.45922C17.68 1.28372 18.538 0.956723 19.3413 0.479723C19.0315 1.44272 18.4375 2.18747 17.5585 2.71472C18.337 2.63147 19.1155 2.42222 19.894 2.08697Z" fill="black"/>
</svg>
